<svg xmlns="http://www.w3.org/2000/svg" width="512" height="512" viewBox="0 0.95 400 400">
  <rect y="0.95" width="400" height="400" fill="#f1f0f0"/>
  <path fill="#0f1010" d="M121.16,116.94c2.04.18,3.76,1.5,4.57,3.34l60,124.5c.52.8.83,1.75.88,2.77v25.75s0,.05,0,.08c0,3.13-2.44,5.66-5.46,5.7h-86s-.05,0-.07,0c-3.05,0-5.53-2.55-5.53-5.71,0-.02,0-.05,0-.08V122.55c.04-3.12,2.5-5.63,5.53-5.63.02,0,.05,0,.07,0h18.9s7.1.02,7.1.02Z"/>
  <path fill="#0f1010" d="M248.99,116.94c2.04.18,3.76,1.5,4.57,3.34l60,124.5c.52.8.83,1.75.88,2.77v25.75s0,.05,0,.08c0,3.13-2.44,5.66-5.46,5.7h-86s-.05,0-.07,0c-3.05,0-5.53-2.55-5.53-5.71,0-.02,0-.05,0-.08V122.55c.04-3.12,2.5-5.63,5.53-5.63.02,0,.05,0,.07,0h18.89s7.1.02,7.1.02Z"/>
</svg>
